<svg width="39" height="38" viewBox="0 0 39 38" fill="none" xmlns="http://www.w3.org/2000/svg">
<g id="apple">
<path id="Vector" d="M29.4498 20.0935C29.4049 15.6809 33.0643 13.5647 33.2276 13.4577C31.1707 10.4641 27.967 10.0538 26.827 10.0078C24.1035 9.73157 21.5079 11.6055 20.1257 11.6055C18.7463 11.6055 16.6119 10.0484 14.3523 10.0877C11.3798 10.1323 8.64 11.8086 7.11093 14.4569C4.02422 19.7862 6.32191 27.6839 9.32972 32.0085C10.8003 34.1221 12.5538 36.501 14.8542 36.4144C17.0717 36.3277 17.9083 34.9859 20.5883 34.9859C23.2682 34.9859 24.0219 36.4144 26.3672 36.3683C28.7519 36.325 30.2633 34.2142 31.7216 32.0911C33.4085 29.635 34.1037 27.2574 34.1458 27.1369C34.0941 27.1139 29.4974 25.3605 29.4498 20.0935ZM25.0422 7.14548C26.2624 5.671 27.0882 3.62243 26.8651 1.58334C25.1047 1.6551 22.973 2.74776 21.7092 4.22089C20.5774 5.52748 19.5857 7.60854 19.8523 9.61107C21.8167 9.76271 23.8178 8.61725 25.0422 7.14548Z" fill="url(#paint0_linear_175_876)"/>
</g>
<defs>
<linearGradient id="paint0_linear_175_876" x1="27.6858" y1="30.7451" x2="25.846" y2="-11.1961" gradientUnits="userSpaceOnUse">
<stop stop-color="#ABE9FD"/>
<stop offset="1" stop-color="#CFF57E"/>
</linearGradient>
</defs>
</svg>
