<svg width="28" height="28" viewBox="0 0 28 28" fill="none" xmlns="http://www.w3.org/2000/svg">
<path d="M2.625 3.25335V24.7455C2.62514 24.7922 2.63905 24.8377 2.66498 24.8765C2.69091 24.9152 2.7277 24.9455 2.77074 24.9634C2.81378 24.9813 2.86116 24.9862 2.90694 24.9773C2.95271 24.9684 2.99484 24.9462 3.02805 24.9134L14.2188 14L3.02805 3.08546C2.99484 3.05273 2.95271 3.03052 2.90694 3.02163C2.86116 3.01274 2.81378 3.01756 2.77074 3.03549C2.7277 3.05342 2.69091 3.08366 2.66498 3.12242C2.63905 3.16118 2.62514 3.20673 2.625 3.25335Z" fill="url(#paint0_linear_452_479)"/>
<path d="M18.911 9.51562L4.87925 1.785L4.8705 1.78007C4.62878 1.64882 4.39909 1.97585 4.59706 2.16617L15.5964 12.6837L18.911 9.51562Z" fill="url(#paint1_linear_452_479)"/>
<path d="M4.59813 25.8338C4.39906 26.0242 4.62875 26.3512 4.87156 26.2199L4.88031 26.215L18.9109 18.4844L15.5963 15.3152L4.59813 25.8338Z" fill="url(#paint2_linear_452_479)"/>
<path d="M24.5755 12.6328L20.6571 10.4748L16.9728 14L20.6571 17.5235L24.5755 15.3672C25.6414 14.7782 25.6414 13.2218 24.5755 12.6328Z" fill="url(#paint3_linear_452_479)"/>
<defs>
<linearGradient id="paint0_linear_452_479" x1="11.5908" y1="21.4054" x2="9.79747" y2="-4.96981" gradientUnits="userSpaceOnUse">
<stop stop-color="#ABE9FD"/>
<stop offset="1" stop-color="#CFF57E"/>
</linearGradient>
<linearGradient id="paint1_linear_452_479" x1="15.6495" y1="10.9034" x2="15.29" y2="-2.27704" gradientUnits="userSpaceOnUse">
<stop stop-color="#ABE9FD"/>
<stop offset="1" stop-color="#CFF57E"/>
</linearGradient>
<linearGradient id="paint2_linear_452_479" x1="15.6495" y1="24.4697" x2="15.29" y2="11.288" gradientUnits="userSpaceOnUse">
<stop stop-color="#ABE9FD"/>
<stop offset="1" stop-color="#CFF57E"/>
</linearGradient>
<linearGradient id="paint3_linear_452_479" x1="23.4704" y1="16.3758" x2="23.2146" y2="7.88023" gradientUnits="userSpaceOnUse">
<stop stop-color="#ABE9FD"/>
<stop offset="1" stop-color="#CFF57E"/>
</linearGradient>
</defs>
</svg>
